<svg viewBox="0 0 1930.7 3443.7" xmlns="http://www.w3.org/2000/svg"><g fill="#136796"><g fill-rule="evenodd"><path d="m977 105.5c-128 266-584 524-21.7 934 155 115 415 185 282.4 456.1-11.8 20.7 8.8 26.4 27.2 10.9 190-220 499-568 238.8-851.4-148-160-451-265-511.4-417-11.7-29.4 1.2-71.9 17.4-105.5 13-31.2-25.7-39.4-32.6-27.2z"/><path d="m983.9 105.5c-128 266-584 524-21.7 934 155 115 415 185 282.4 456.1-11.8 20.7 8.8 26.4 27.2 10.9 190-220 499-568 238.8-851.4-148-160-451-265-511.4-417-11.7-29.4 1.2-71.9 17.4-105.5 13-31.2-25.7-39.4-32.6-27.2z"/><path d="m714.2 1026.2c-65.7 179-398 385 45.6 622.6 103 61.3 235 138 220.8 250.2-5.5 14.3 7.4 16.3 17.2 4.7 146-168 256-407 76.9-568-93.5-90.6-315-140-338.8-294.7 5.4-21.2-18.6-23.2-21.8-14.7z"/></g><path d="m413.3 1969h1121.3v137.7h-1121.3z"/><path d="m414.6 1965.2-49.5 139.1 84.9 1.2zm1119 0 49.5 139.1-84.9 1.2zm-883.9 104.5 82.7 224.9 486.1-1.7 76.1-223.2h-644.8z" fill-rule="evenodd"/><path d="m60 2413.3h148v665.2h-148z"/><path d="m205.9 2413.2 239.7 2.1c119-3.2 210 209 56.3 323 205 57.3 131 335-33.3 335.5l-264.7 4.2-37.5-120.9 252.2 2.1c79.9 2.3 85-159 2.1-160.5l-231.3 4.2-6.3-125h206.3c94 3.9 64.8-146 2.1-145.9l-206.3-4.2-20.8-93.8 41.7-20.8z" fill-rule="evenodd"/><path d="m699.1 2413.3h148v665.2h-148z"/><path d="m845 2413.2 239.7 2.1c119-3.2 210 209 56.3 323 205 57.3 131 335-33.3 335.5l-264.7 4.2-37.5-120.9 252.2 2.1c79.9 2.3 85-159 2.1-160.5l-231.3 4.2-6.3-125h206.3c94 3.9 64.8-146 2.1-145.9l-206.3-4.2-20.8-93.8 41.7-20.8z" fill-rule="evenodd"/><path d="m1331.3 2413.3h148v665.2h-148z"/><path d="m1477.2 2413.2 239.7 2.1c119-3.2 210 209 56.3 323 205 57.3 131 335-33.3 335.5l-264.7 4.2-37.5-120.9 252.2 2.1c79.9 2.3 85-159 2.1-160.5l-231.3 4.2-6.3-125h206.3c94 3.9 64.8-146 2.1-145.9l-206.3-4.2-20.8-93.8 41.7-20.8z" fill-rule="evenodd"/><text font-family="DejaVu Sans" font-size="233" x="65.5" y="3375.2">Start With Trust</text></g></svg>