<svg height="32" viewBox="0 0 32 32" width="32" xmlns="http://www.w3.org/2000/svg"><path d="m28.802 0h-25.604c-1.76.005-3.193 1.438-3.198 3.198v25.604c.005 1.76 1.438 3.193 3.198 3.198h25.604c1.76-.005 3.193-1.438 3.198-3.198v-25.604c-.005-1.76-1.438-3.193-3.198-3.198zm-19.406 19.286c1.411.646 3.078.021 3.724-1.391h2.214c-1.38 5.651-9.698 4.651-9.698-1.167 0-5.823 8.318-6.823 9.698-1.167h-2.214c-.813-1.786-3.161-2.214-4.547-.823-1.391 1.385-.964 3.734.823 4.547zm15.125 1.125c-.422.365-.896.646-1.417.844-1.495.578-3.182.391-4.516-.51v.51h-2.016v-14.094h2v5.479c.714-.484 1.542-.771 2.401-.839h.359c4.552-.01 6.646 5.656 3.188 8.609zm-.297-3.687c.031 1.573-1.234 2.87-2.807 2.87s-2.839-1.297-2.802-2.87c.078-3.656 5.526-3.656 5.609 0z"/></svg>