<svg enable-background="new 0 0 54 54" viewBox="0 0 54 54" xmlns="http://www.w3.org/2000/svg"><path d="m-.2.1h53.8v53.4h-53.8z" fill="none"/><path d="m48.1 12.9v26.8c0 2.2-.8 4.1-2.4 5.7s-3.5 2.4-5.7 2.4h-26.7c-2.2 0-4.1-.8-5.7-2.4s-2.4-3.5-2.4-5.7v-26.8c0-2.2.8-4.1 2.4-5.7s3.5-2.4 5.7-2.4h26.7c2.2 0 4.1.8 5.7 2.4s2.4 3.5 2.4 5.7zm-11.2 29.1-1.7-5.1c-.8.4-1.8.6-2.9.6-.7 0-1.2-.1-1.7-.3s-.8-.5-1.1-.9c-.2-.4-.4-.7-.5-1.1s-.1-.8-.1-1.2v-11.1h7.1v-5.4h-7.1v-9.1h-5.2c-.1 0-.2.1-.3.3-.1.8-.3 1.6-.5 2.4s-.6 1.7-1.1 2.7-1.2 1.9-2.1 2.7-2 1.4-3.3 1.9v4.6h3.6v11.7c0 1.1.2 2.1.6 3.2s1 2.1 1.8 3.1 1.9 1.8 3.4 2.4c1.4.6 3.1.9 4.9.9 1.3 0 2.6-.3 3.8-.7 1.3-.6 2.1-1.1 2.4-1.6z"/></svg>