<?xml version="1.0" encoding="utf-8"?>
<!-- Generator: Adobe Illustrator 21.1.0, SVG Export Plug-In . SVG Version: 6.00 Build 0)  -->
<svg version="1.1" id="Layer_1" xmlns="http://www.w3.org/2000/svg" xmlns:xlink="http://www.w3.org/1999/xlink" x="0px" y="0px"
	 viewBox="0 0 54 54" style="enable-background:new 0 0 54 54;" xml:space="preserve">
<style type="text/css">
	.st0{fill:none;}
</style>
<g>
	<rect x="-0.2" y="0.1" class="st0" width="53.8" height="53.4"/>
	<path d="M48.1,12.9v26.8c0,2.2-0.8,4.1-2.4,5.7c-1.6,1.6-3.5,2.4-5.7,2.4H13.3c-2.2,0-4.1-0.8-5.7-2.4c-1.6-1.6-2.4-3.5-2.4-5.7
		V12.9c0-2.2,0.8-4.1,2.4-5.7c1.6-1.6,3.5-2.4,5.7-2.4H40c2.2,0,4.1,0.8,5.7,2.4C47.3,8.8,48.1,10.7,48.1,12.9z M36.9,42l-1.7-5.1
		c-0.8,0.4-1.8,0.6-2.9,0.6c-0.7,0-1.2-0.1-1.7-0.3c-0.5-0.2-0.8-0.5-1.1-0.9c-0.2-0.4-0.4-0.7-0.5-1.1c-0.1-0.4-0.1-0.8-0.1-1.2
		V22.9H36v-5.4h-7.1V8.4h-5.2c-0.1,0-0.2,0.1-0.3,0.3c-0.1,0.8-0.3,1.6-0.5,2.4c-0.2,0.8-0.6,1.7-1.1,2.7c-0.5,1-1.2,1.9-2.1,2.7
		c-0.9,0.8-2,1.4-3.3,1.9v4.6H20v11.7c0,1.1,0.2,2.1,0.6,3.2s1,2.1,1.8,3.1c0.8,1,1.9,1.8,3.4,2.4c1.4,0.6,3.1,0.9,4.9,0.9
		c1.3,0,2.6-0.3,3.8-0.7C35.8,43,36.6,42.5,36.9,42z"/>
</g>
</svg>
