<svg height="1024" viewBox="0 0 1024 1024" width="1024" xmlns="http://www.w3.org/2000/svg"><circle cx="512" cy="512" fill="#0ecad4" r="512"/><path d="m443.4 723.7h135.9v-103l-32.9-32.9h-70.1l-32.9 32.9zm175.9-278.9-32.9 32.9v71.5l32.9 32.9h103v-135.9h-103zm-40.1-144.5h-135.8v103l32.9 32.9h70.1l32.9-32.9v-103zm144.5 423.4v-103l-32.9-32.9h-103v135.9zm-390.5-423.4-32.9 32.9v103h135.9v-135.9zm254.6 0v103l32.9 32.9h103v-135.9zm-75.8 231.7c-10 0-18.6-8.6-18.6-18.6s8.6-18.6 18.6-18.6 18.6 8.6 18.6 18.6-8.6 18.6-18.6 18.6zm-75.8-87.2h-135.9v135.9h103l32.9-32.9zm0 175.9-32.9-32.9h-103v135.9h103l32.9-32.9z" fill="#fff"/></svg>